<svg width="26" height="26" viewBox="0 0 26 26" fill="none" xmlns="http://www.w3.org/2000/svg">
<path d="M26 2V24C26 24.5304 25.7893 25.0391 25.4142 25.4142C25.0391 25.7893 24.5304 26 24 26H2C1.46957 26 0.960858 25.7893 0.585785 25.4142C0.210712 25.0391 0 24.5304 0 24V2C0 1.46957 0.210712 0.960859 0.585785 0.585786C0.960858 0.210714 1.46957 0 2 0L24 0C24.5304 0 25.0391 0.210714 25.4142 0.585786C25.7893 0.960859 26 1.46957 26 2ZM8 10H4V22H8V10ZM8.25 6C8.25994 5.553 8.13647 5.11317 7.89536 4.73664C7.65424 4.36011 7.30641 4.06396 6.89625 3.88597C6.48609 3.70798 6.0322 3.65622 5.5925 3.73731C5.1528 3.8184 4.74723 4.02865 4.42754 4.34124C4.10785 4.65382 3.88854 5.05456 3.79759 5.49233C3.70665 5.9301 3.74819 6.38503 3.91692 6.79909C4.08564 7.21314 4.37391 7.56754 4.74493 7.81706C5.11594 8.06657 5.55289 8.19989 6 8.2C6.29345 8.20805 6.58552 8.15701 6.85885 8.04994C7.13218 7.94286 7.3812 7.78192 7.59109 7.57669C7.80099 7.37146 7.96748 7.12612 8.08067 6.85526C8.19387 6.5844 8.25145 6.29355 8.25 6ZM22 14.56C22 10.91 19.71 9.66 17.53 9.66C16.7782 9.65542 16.0375 9.84096 15.3766 10.1994C14.7158 10.5578 14.1562 11.0774 13.75 11.71V10H10V22H14V15.47C13.956 15.1525 13.9801 14.8292 14.0706 14.5216C14.1611 14.2141 14.316 13.9294 14.525 13.6863C14.7341 13.4432 14.9924 13.2474 15.2829 13.1118C15.5734 12.9763 15.8894 12.9041 16.21 12.9C17.31 12.9 18 13.49 18 15.42V22H22V14.56Z" fill="#0A66C2"/>
</svg>
