<svg xmlns="http://www.w3.org/2000/svg" width="64" height="97" viewBox="0 0 64 97">
  <g fill="none" transform="translate(0 28)">
    <path fill="#9DB88F" d="M32,64 C49.6731,64 64,49.6731 64,32 C64,14.3269 49.6731,0 32,0 C14.3269,0 0,14.3269 0,32 C0,49.6731 14.3269,64 32,64 Z"/>
    <path fill="#F8FBF6" d="M32,56 C45.2548,56 56,45.2548 56,32 C56,18.7452 45.2548,8 32,8 C18.7452,8 8,18.7452 8,32 C8,45.2548 18.7452,56 32,56 Z"/>
    <path fill="#D7EBCE" d="M32,53 C43.598,53 53,43.598 53,32 C53,20.402 43.598,11 32,11 C20.402,11 11,20.402 11,32 C11,43.598 20.402,53 32,53 Z"/>
    <path fill="#38434F" d="M29.8404,42 C29.3495,41.999 28.8761,41.8175 28.5104,41.49 L19.8604,33.79 C19.4748,33.4379 19.2422,32.9489 19.2123,32.4276 C19.1824,31.9062 19.3576,31.3939 19.7004,31 C20.0535,30.6055 20.5487,30.3671 21.0773,30.3371 C21.606,30.3071 22.1249,30.488 22.5204,30.84 L29.5204,37.08 L39.8604,22.82 C40.0154,22.6079 40.2106,22.4284 40.4349,22.2918 C40.6592,22.1552 40.9083,22.064 41.1678,22.0236 C41.4273,21.9832 41.6923,21.9944 41.9475,22.0564 C42.2028,22.1184 42.4433,22.23 42.6554,22.385 C42.8675,22.54 43.047,22.7352 43.1836,22.9595 C43.3203,23.1838 43.4114,23.4329 43.4518,23.6924 C43.4922,23.952 43.481,24.2169 43.419,24.4721 C43.357,24.7274 43.2454,24.9679 43.0904,25.18 L31.4504,41.18 C31.2863,41.4051 31.077,41.5934 30.8359,41.7328 C30.5949,41.8723 30.3273,41.9599 30.0504,41.99 L29.8404,42 Z"/>
  </g>
</svg>
